<?xml version="1.0" standalone="no"?>
<!DOCTYPE svg PUBLIC "-//W3C//DTD SVG 20010904//EN"
 "http://www.w3.org/TR/2001/REC-SVG-20010904/DTD/svg10.dtd">
<svg version="1.0" xmlns="http://www.w3.org/2000/svg"
 width="377.000000pt" height="383.000000pt" viewBox="0 0 377.000000 383.000000"
 preserveAspectRatio="xMidYMid meet">

<g transform="translate(0.000000,383.000000) scale(0.100000,-0.100000)"
fill="#000000" stroke="none">
<path d="M1763 3591 c-132 -49 -263 -182 -368 -376 l-45 -82 -50 -5 c-63 -6
-126 -47 -146 -94 l-15 -35 -77 8 c-136 14 -279 8 -377 -17 -96 -24 -129 -38
-212 -93 -64 -42 -94 -77 -104 -126 -4 -20 -12 -60 -18 -90 -36 -176 29 -383
207 -660 22 -35 31 -59 26 -66 -41 -55 -48 -73 -52 -124 -2 -41 2 -65 16 -90
l19 -35 -79 -125 c-75 -120 -136 -257 -157 -351 -16 -67 -13 -180 5 -240 39
-131 138 -226 294 -281 60 -22 82 -23 276 -24 l211 0 24 -32 c30 -40 87 -66
143 -66 l43 0 41 -86 c105 -221 253 -381 400 -433 47 -17 74 -19 152 -16 82 4
104 9 160 38 117 59 253 216 341 392 31 64 35 68 66 68 51 0 95 23 135 70 l36
42 113 -12 c247 -26 479 32 578 145 17 20 45 64 63 98 27 53 32 75 35 157 8
170 -33 299 -169 522 -43 72 -78 134 -78 138 0 4 7 21 15 36 18 35 19 108 1
149 -12 28 -10 33 34 95 194 271 265 520 201 703 -36 104 -98 169 -216 227
-107 53 -185 64 -407 58 -98 -3 -178 -1 -178 3 0 15 -62 80 -90 94 -15 8 -44
15 -64 17 -34 2 -38 6 -72 78 -86 179 -224 340 -344 400 -58 30 -76 34 -165
37 -81 3 -110 0 -152 -16z m263 -105 c38 -19 94 -59 124 -88 57 -54 146 -181
193 -274 l26 -52 -32 -35 c-32 -33 -57 -93 -57 -136 0 -14 -9 -25 -27 -31 -16
-6 -37 -15 -48 -20 -51 -24 -279 -110 -291 -110 -8 0 -55 18 -106 40 -92 40
-250 104 -277 112 -8 2 -15 21 -17 48 -5 68 -12 87 -44 123 l-29 33 39 70 c72
129 125 198 194 256 126 105 231 124 352 64z m-656 -461 c51 -27 62 -73 36
-150 -13 -38 -16 -40 -57 -42 -74 -3 -129 41 -129 102 1 82 77 128 150 90z
m1159 -40 c37 -19 55 -64 47 -116 -12 -76 -20 -82 -89 -75 -70 7 -93 24 -107
78 -25 91 63 158 149 113z m-1461 -71 c51 -7 53 -8 72 -53 11 -25 34 -57 50
-71 l30 -25 -26 -115 c-14 -63 -34 -177 -44 -254 -10 -76 -22 -141 -28 -145
-39 -26 -150 -120 -219 -185 -71 -68 -85 -77 -98 -66 -9 7 -41 14 -73 16 l-56
3 -63 93 c-138 207 -202 439 -156 574 21 63 71 134 94 134 10 0 23 8 28 19 11
19 89 55 156 70 47 11 257 14 333 5z m2000 -40 c144 -29 241 -92 285 -183 32
-66 31 -219 -1 -312 -30 -87 -91 -205 -158 -306 l-55 -82 -41 15 c-33 11 -53
12 -101 3 l-59 -10 -77 73 c-42 40 -102 96 -135 124 -57 49 -59 52 -67 115 -5
35 -23 147 -41 248 l-32 184 26 21 c15 11 36 42 48 68 19 44 23 47 63 51 112
10 273 6 345 -9z m-1502 -93 c136 -51 215 -86 216 -96 0 -5 -71 -51 -159 -101
-88 -51 -209 -124 -269 -163 -79 -52 -110 -68 -112 -57 -4 18 20 148 50 284
16 70 25 92 38 92 31 0 108 31 126 51 9 10 20 19 24 19 3 0 42 -13 86 -29z
m788 -32 c24 -18 66 -37 92 -44 40 -10 49 -17 56 -41 15 -52 60 -304 56 -315
-2 -5 -71 37 -155 93 -83 57 -173 115 -200 130 -99 57 -174 106 -166 111 14 9
207 84 228 90 37 9 44 7 89 -24z m-316 -193 c138 -74 309 -186 444 -288 l96
-73 7 -74 c9 -94 9 -478 0 -586 l-7 -83 -96 -69 c-142 -100 -300 -197 -449
-274 -128 -68 -159 -78 -179 -60 -5 4 -47 29 -94 53 -104 54 -356 220 -462
302 -76 59 -77 61 -85 116 -10 72 -9 536 1 622 l7 67 92 66 c51 36 139 95 197
132 115 73 377 212 398 213 8 0 66 -29 130 -64z m-926 -717 l-3 -280 -37 30
c-20 16 -62 55 -92 86 l-55 56 0 79 c0 61 -4 83 -17 96 -15 16 -14 19 20 52
62 59 177 162 182 162 3 0 4 -126 2 -281z m1667 179 c67 -66 81 -85 76 -102
-4 -12 -9 -51 -12 -89 -4 -53 -2 -73 13 -94 l17 -27 -89 -83 c-49 -46 -91 -83
-94 -83 -3 0 -5 126 -5 280 0 154 2 280 5 280 4 0 43 -37 89 -82z m-1983 -132
c42 -42 45 -82 8 -125 -23 -28 -32 -31 -79 -31 -46 0 -57 4 -74 26 -51 65 -6
164 74 164 29 0 45 -8 71 -34z m2305 5 c38 -39 40 -97 5 -138 -20 -23 -32 -28
-71 -28 -40 0 -51 5 -76 33 -33 37 -36 60 -13 107 29 61 106 74 155 26z
m-2180 -288 c19 -21 74 -71 122 -112 48 -41 87 -76 87 -77 0 -23 35 -256 51
-341 l21 -111 -42 -38 c-46 -42 -70 -81 -70 -117 0 -31 -31 -37 -185 -37 -129
0 -225 18 -309 59 -121 57 -167 127 -174 261 -5 105 12 179 72 305 39 83 127
229 145 240 4 2 23 -1 42 -6 28 -9 49 -7 104 9 79 22 87 20 136 -35z m2129 24
c19 1 44 3 54 5 26 4 89 -85 151 -212 96 -195 122 -323 89 -440 -15 -56 -27
-74 -78 -126 -50 -49 -73 -64 -131 -83 -120 -41 -449 -42 -462 -3 -16 54 -40
96 -65 115 l-27 22 25 127 c14 71 33 182 42 248 l18 119 94 79 c52 43 115 98
140 120 41 38 48 41 80 35 19 -4 51 -7 70 -6z m-1442 -548 c40 -24 93 -56 118
-70 26 -15 42 -29 37 -32 -19 -12 -171 -70 -233 -89 l-64 -20 -23 26 c-30 35
-92 76 -114 76 -27 0 -35 21 -63 168 -40 206 -51 199 122 84 81 -54 180 -118
220 -143z m937 129 c-8 -51 -25 -132 -36 -179 l-20 -87 -40 -6 c-41 -6 -104
-41 -127 -68 -11 -14 -23 -12 -105 17 -50 18 -121 46 -157 62 l-65 30 55 28
c30 15 66 35 80 45 14 10 56 35 95 55 38 21 119 70 180 110 122 80 148 95 153
90 2 -2 -4 -45 -13 -97z m-530 -340 c18 -10 171 -74 238 -100 18 -7 27 -17 27
-32 0 -38 21 -89 52 -129 l29 -37 -38 -70 c-93 -173 -212 -296 -330 -343 -68
-27 -162 -19 -231 18 -116 63 -195 155 -296 346 l-54 102 26 33 c14 18 31 52
37 75 l10 41 130 50 c72 27 150 56 174 65 25 9 56 22 69 29 20 10 32 9 80 -12
32 -13 66 -29 77 -36z m-664 -17 c34 -35 39 -86 12 -132 -32 -54 -129 -51
-164 4 -62 99 70 210 152 128z m1173 -22 c14 -7 32 -27 42 -47 22 -47 9 -89
-36 -120 -69 -46 -150 -3 -150 79 0 76 73 120 144 88z"/>
<path d="M1825 2374 c-195 -26 -255 -46 -286 -98 -18 -29 -19 -57 -19 -440 l0
-408 38 -38 c30 -30 53 -41 121 -59 76 -21 101 -23 245 -18 171 4 233 17 297
60 59 40 59 35 59 474 l0 401 -26 32 c-34 40 -68 57 -151 74 -73 15 -229 27
-278 20z m299 -124 c55 -21 58 -24 41 -36 -71 -52 -313 -67 -462 -28 -72 19
-95 37 -65 53 55 29 139 40 282 37 122 -3 154 -7 204 -26z m-386 -166 c125
-24 312 -14 414 22 l38 13 0 -79 0 -78 -42 -16 c-105 -38 -287 -47 -422 -22
-116 23 -116 23 -116 116 l0 80 28 -11 c15 -6 60 -17 100 -25z m20 -263 c126
-19 243 -12 405 25 l28 7 -3 -69 c-3 -68 -3 -69 -38 -86 -116 -54 -430 -49
-517 8 -20 13 -23 23 -23 84 l0 69 38 -13 c21 -8 71 -19 110 -25z m-74 -238
c45 -13 100 -17 216 -17 116 0 171 4 216 17 34 9 65 17 68 17 4 0 6 -33 4 -72
-3 -73 -3 -73 -38 -90 -116 -54 -430 -49 -517 8 -20 13 -23 23 -23 84 0 39 3
70 6 70 3 0 34 -8 68 -17z"/>
<path d="M1014 3389 c-54 -28 -57 -116 -5 -156 28 -22 89 -16 116 12 30 30 34
92 7 125 -20 25 -86 35 -118 19z"/>
<path d="M2690 3388 c-14 -8 -31 -26 -38 -42 -42 -86 76 -169 143 -101 30 30
34 92 8 124 -22 27 -80 36 -113 19z"/>
<path d="M216 1884 c-56 -56 -17 -154 61 -154 25 0 43 8 64 29 37 37 38 79 3
120 -35 41 -89 43 -128 5z"/>
<path d="M3416 1879 c-15 -17 -26 -43 -26 -59 0 -16 11 -42 26 -59 20 -25 34
-31 64 -31 78 0 119 98 64 154 -39 38 -93 36 -128 -5z"/>
<path d="M999 431 c-59 -60 -22 -151 63 -151 54 0 88 35 88 90 0 84 -91 121
-151 61z"/>
<path d="M2687 449 c-28 -16 -49 -67 -42 -100 15 -67 114 -94 154 -43 30 38
28 98 -4 129 -26 27 -75 33 -108 14z"/>
</g>
</svg>
